<?xml version="1.0" encoding="utf-8"?>
<!-- Generator: Adobe Illustrator 22.0.0, SVG Export Plug-In . SVG Version: 6.00 Build 0)  -->
<svg version="1.1" id="图层_1" xmlns="http://www.w3.org/2000/svg" xmlns:xlink="http://www.w3.org/1999/xlink" x="0px" y="0px"
	 viewBox="0 0 20 20" style="enable-background:new 0 0 20 20;" xml:space="preserve">
<style type="text/css">
	.st0{fill:#2E6BE6;}
</style>
<path id="Combined-Shape" class="st0" d="M3,2h14c0.6,0,1,0.4,1,1v14c0,0.6-0.4,1-1,1H3c-0.6,0-1-0.4-1-1V3C2,2.4,2.4,2,3,2z
	 M8.4,9.6h1c0.1,0,0.2,0,0.2-0.1C9.9,9.4,10,9.1,9.9,8.9l-2-3.5c0-0.1-0.1-0.1-0.2-0.2C7.5,5.1,7.2,5.1,7,5.4l-2,3.5
	C5,8.9,5,9,5,9.1c0,0.3,0.2,0.5,0.5,0.5h1v4.4c0,0.5,0.4,0.9,0.9,0.9s0.9-0.4,0.9-0.9V9.6z M12.2,5c-0.6,0-1,0.4-1,1s0.4,1,1,1h2
	c0.6,0,1-0.4,1-1s-0.4-1-1-1H12.2z M12.2,9c-0.6,0-1,0.4-1,1c0,0.6,0.4,1,1,1h2c0.6,0,1-0.4,1-1c0-0.6-0.4-1-1-1H12.2z M12.2,13
	c-0.6,0-1,0.4-1,1s0.4,1,1,1h2c0.6,0,1-0.4,1-1s-0.4-1-1-1H12.2z"/>
</svg>
