<!-- Generated by IcoMoon.io -->
<svg version="1.1" xmlns="http://www.w3.org/2000/svg" width="1024" height="1024" viewBox="0 0 1024 1024">
<title></title>
<g id="icomoon-ignore">
</g>
<path d="M409.6 486.4h409.6c15.36 0 25.6 10.24 25.6 25.6v0c0 15.36-10.24 25.6-25.6 25.6h-409.6c-15.36 0-25.6-10.24-25.6-25.6v0c0-15.36 10.24-25.6 25.6-25.6z"></path>
<path d="M819.2 563.2h-409.6c-30.72 0-51.2-20.48-51.2-51.2s20.48-51.2 51.2-51.2h409.6c30.72 0 51.2 20.48 51.2 51.2s-20.48 51.2-51.2 51.2zM409.6 486.4v25.6c0 0 0 0 0 0v-25.6z"></path>
<path d="M716.8 742.4c-10.24 0-25.6-5.12-35.84-15.36-20.48-20.48-20.48-51.2-5.12-71.68l143.36-158.72-143.36-158.72c-20.48-20.48-15.36-51.2 5.12-71.68s51.2-15.36 71.68 5.12l174.080 189.44c15.36 20.48 15.36 51.2 0 66.56l-174.080 189.44c-10.24 15.36-20.48 25.6-35.84 25.6z"></path>
<path d="M614.4 409.6h-204.8c-56.32 0-102.4 46.080-102.4 102.4s46.080 102.4 102.4 102.4h204.8v256c0 30.72-20.48 51.2-51.2 51.2h-409.6c-30.72 0-51.2-20.48-51.2-51.2v-716.8c0-30.72 20.48-51.2 51.2-51.2h409.6c30.72 0 51.2 20.48 51.2 51.2v256z"></path>
</svg>
