<?xml version="1.0" encoding="utf-8"?>
<!-- Generator: Adobe Illustrator 22.0.0, SVG Export Plug-In . SVG Version: 6.00 Build 0)  -->
<svg version="1.1" id="图层_1" xmlns="http://www.w3.org/2000/svg" xmlns:xlink="http://www.w3.org/1999/xlink" x="0px" y="0px"
	 viewBox="0 0 20 20" style="enable-background:new 0 0 20 20;" xml:space="preserve">
<style type="text/css">
	.st0{fill:#2E6BE6;}
</style>
<path id="Shape" class="st0" d="M17.4,2H2.6C2.3,2,2,2.3,2,2.6v4h16v-4C18,2.3,17.7,2,17.4,2z M4,5C3.4,5,3,4.6,3,4s0.4-1,1-1
	s1,0.4,1,1S4.6,5,4,5z M2,17.4C2,17.7,2.3,18,2.6,18h14.8c0.3,0,0.6-0.3,0.6-0.6v-4H2V17.4z M4,15c0.6,0,1,0.4,1,1s-0.4,1-1,1
	s-1-0.4-1-1S3.4,15,4,15z M2,12.3h16V7.7H2V12.3z M4,9c0.6,0,1,0.4,1,1s-0.4,1-1,1s-1-0.4-1-1S3.4,9,4,9z"/>
</svg>
