<?xml version="1.0" encoding="utf-8"?>
<!-- Generator: Adobe Illustrator 22.0.0, SVG Export Plug-In . SVG Version: 6.00 Build 0)  -->
<svg version="1.1" id="图层_1" xmlns="http://www.w3.org/2000/svg" xmlns:xlink="http://www.w3.org/1999/xlink" x="0px" y="0px"
	 viewBox="0 0 20 20" style="enable-background:new 0 0 20 20;" xml:space="preserve">
<style type="text/css">
	.st0{fill:#2E6BE6;}
</style>
<path id="Fill-5" class="st0" d="M10,8.1C9,8.1,8.1,9,8.1,10S9,11.9,10,11.9s1.9-0.9,1.9-1.9S11,8.1,10,8.1 M10,13.2
	c-1.7,0-3.2-1.4-3.2-3.2S8.3,6.8,10,6.8s3.2,1.4,3.2,3.2S11.7,13.2,10,13.2 M17.9,12.3l-1-2.3l0.9-2.3c0.3-0.6,0-1.4-0.7-1.7
	l-2.3-0.9l-1-2.3c-0.3-0.6-1-0.9-1.7-0.7l-2.3,1L7.7,2.1C7,1.9,6.3,2.2,6,2.8L5.1,5.1l-2.3,1c-0.6,0.3-0.9,1-0.7,1.7l1,2.3l-0.9,2.3
	c-0.3,0.6,0,1.4,0.7,1.7l2.3,0.9l1,2.3c0.3,0.6,1,0.9,1.7,0.7l2.3-1l2.3,0.9c0.6,0.3,1.4,0,1.7-0.7l0.9-2.3l2.3-1
	C17.9,13.6,18.2,12.9,17.9,12.3"/>
</svg>
