<?xml version="1.0" encoding="utf-8"?>
<!-- Generator: Adobe Illustrator 22.0.0, SVG Export Plug-In . SVG Version: 6.00 Build 0)  -->
<svg version="1.1" id="图层_1" xmlns="http://www.w3.org/2000/svg" xmlns:xlink="http://www.w3.org/1999/xlink" x="0px" y="0px"
	 viewBox="0 0 20 20" style="enable-background:new 0 0 20 20;" xml:space="preserve">
<style type="text/css">
	.st0{fill:#999999;}
</style>
<path id="Fill-5" class="st0" d="M3.4,12.6c3.7-3.5,9.6-3.5,13.3,0c0.2,0.2,0.4,0.5,0.4,0.8v3.4c0,0.6-0.6,1.2-1.2,1.2H4.2
	C3.6,18,3,17.5,3,16.8v-3.4C3,13.1,3.1,12.8,3.4,12.6z M10,10c-1.7,0-3-1.4-3-3.1V5.1C7,3.4,8.3,2,10,2s3,1.4,3,3.1v1.7
	C13,8.6,11.7,10,10,10z"/>
</svg>
