<?xml version="1.0" encoding="utf-8"?>
<!-- Generator: Adobe Illustrator 22.0.0, SVG Export Plug-In . SVG Version: 6.00 Build 0)  -->
<svg version="1.1" id="图层_1" xmlns="http://www.w3.org/2000/svg" xmlns:xlink="http://www.w3.org/1999/xlink" x="0px" y="0px"
	 viewBox="0 0 20 20" style="enable-background:new 0 0 20 20;" xml:space="preserve">
<style type="text/css">
	.st0{fill:#2E6BE6;}
</style>
<path id="Shape" class="st0" d="M11.8,7.1H9.2c-0.3,0-0.6,0.3-0.6,0.6v9.7c0,0.3,0.3,0.6,0.6,0.6h2.6c0.3,0,0.6-0.3,0.6-0.6V7.7
	C12.4,7.4,12.1,7.1,11.8,7.1z M17.4,2h-2.6c-0.3,0-0.6,0.3-0.6,0.6v14.9c0,0.3,0.3,0.6,0.6,0.6h2.6c0.3,0,0.6-0.3,0.6-0.6V2.6
	C18,2.3,17.7,2,17.4,2z M6.2,12.3H3.6c-0.3,0-0.6,0.3-0.6,0.6v4.6C3,17.7,3.3,18,3.6,18h2.6c0.3,0,0.6-0.3,0.6-0.6v-4.6
	C6.8,12.5,6.5,12.3,6.2,12.3z"/>
</svg>
