<?xml version="1.0" encoding="utf-8"?>
<!-- Generator: Adobe Illustrator 22.0.0, SVG Export Plug-In . SVG Version: 6.00 Build 0)  -->
<svg version="1.1" id="图层_1" xmlns="http://www.w3.org/2000/svg" xmlns:xlink="http://www.w3.org/1999/xlink" x="0px" y="0px"
	 viewBox="0 0 20 20" style="enable-background:new 0 0 20 20;" xml:space="preserve">
<style type="text/css">
	.st0{fill:#2E6BE6;}
</style>
<path id="Combined-Shape" class="st0" d="M7.8,18.8H3.2c-0.7,0-1.2-0.6-1.2-1.2v-4.6c0-0.7,0.6-1.2,1.2-1.2h4.6
	c0.7,0,1.2,0.6,1.2,1.2v4.6C9.1,18.2,8.5,18.8,7.8,18.8z M16.6,18.8H12c-0.7,0-1.2-0.6-1.2-1.2v-4.6c0-0.7,0.6-1.2,1.2-1.2h4.6
	c0.7,0,1.2,0.6,1.2,1.2v4.6C17.8,18.2,17.3,18.8,16.6,18.8z M7.8,10H3.2C2.6,10,2,9.5,2,8.8V4.2c0-0.7,0.6-1.2,1.2-1.2h4.6
	c0.7,0,1.2,0.6,1.2,1.2v4.6C9.1,9.5,8.5,10,7.8,10z M13.4,10.6l-3.2-3.2c-0.5-0.5-0.5-1.3,0-1.8l3.2-3.2c0.5-0.5,1.3-0.5,1.8,0
	l3.2,3.2c0.5,0.5,0.5,1.3,0,1.8l-3.2,3.2C14.7,11.1,13.9,11.1,13.4,10.6z"/>
</svg>
